<svg xmlns="http://www.w3.org/2000/svg" xmlns:xlink="http://www.w3.org/1999/xlink" width="141" height="66" viewBox="0 0 141 66">
    <defs>
        <linearGradient id="c4y5myz50a" x1="0%" x2="97.719%" y1="92.781%" y2="9.171%">
            <stop offset="0%" stop-color="#5C00EB"/>
            <stop offset="100%" stop-color="#FF5B2B"/>
        </linearGradient>
        <filter id="6xf5jo995b" width="146.2%" height="277.7%" x="-24.8%" y="-106.3%" filterUnits="objectBoundingBox">
            <feOffset dy="-2" in="SourceAlpha" result="shadowOffsetOuter1"/>
            <feGaussianBlur in="shadowOffsetOuter1" result="shadowBlurOuter1" stdDeviation="3"/>
            <feColorMatrix in="shadowBlurOuter1" values="0 0 0 0 0 0 0 0 0 0 0 0 0 0 0 0 0 0 0.5 0"/>
        </filter>
        <path id="eqsca1so6c" d="M36.978 36.739l-2.475 2.475-5.15 5.15c-.15.15-.35.24-.562.251L.364 46.217c-.445.025-.835-.291-.903-.731l-1.189-7.73 38.039-2.49c.476-.031.887.33.918.806.017.248-.075.491-.25.667z"/>
    </defs>
    <g fill="none" fill-rule="evenodd">
        <g>
            <g>
                <g>
                    <g>
                        <path fill="url(#c4y5myz50a)" d="M6 24.773l-3.563 5.884c-.247.408-.116.939.292 1.186.135.082.29.125.448.125h18.05c8.272 0 14.977-7.156 14.977-15.984S29.499 0 21.228 0c-.129 0-.257.002-.384.005V0H6.738C6.436 0 6.156.158 6 .417L2.437 6.3c-.247.408-.116.94.292 1.187.135.081.29.124.448.124h15.59l.22.003c4.438.119 8 3.82 8 8.37 0 4.55-3.562 8.251-8 8.37l-.22.003H6.739c-.302 0-.582.158-.739.416z" transform="translate(-56 -19) translate(63 20)"/>
                        <g transform="translate(-56 -19) translate(63 20) rotate(45 18.437 40.689)">
                            <use fill="#000" filter="url(#6xf5jo995b)" xlink:href="#eqsca1so6c"/>
                            <use fill="#6602FF" xlink:href="#eqsca1so6c"/>
                        </g>
                    </g>
                    <text fill="#FFF" font-family="DINCondensed-Bold, DIN Condensed" font-size="34" font-style="condensed" font-weight="bold" transform="translate(-56 -19) translate(63 20)">
                        <tspan x="45" y="50">Network</tspan>
                    </text>
                </g>
                <text fill="#FFF" font-family="DINCondensed-Bold, DIN Condensed" font-size="34" font-style="condensed" font-weight="bold" transform="translate(-56 -19) translate(63 20)">
                    <tspan x="45" y="24">RAZE</tspan>
                </text>
            </g>
        </g>
    </g>
</svg>
